/* XPM */
static char *bookshelf[] = {
/* columns rows colors chars-per-pixel */
"64 64 14 1 ",
"  c black",
". c #2B302A",
"X c #821717",
"o c #D11010",
"O c #DE2424",
"+ c #8D5524",
"@ c #669120",
"# c #AEB825",
"$ c #C68642",
"% c #E0AC69",
"& c #F1C27D",
"* c #4DB8AD",
"= c #5B82CF",
"- c white",
/* pixels */
"%%%%%%%%%%%%%%%%%%%%%%%%%%%%%%%%%%%%%%%%++++%%%%%%%%%%%%%%%%$$$$",
"%%%%%%%%%%%%%%%%%%%%%%%%%%%%%%%%%%%%%%%%++++%%%%%%%%%%%%%%%%$$$$",
"%%%%%%%%%%%%%%%%%%%%%%%%%%%%%%%%%%%%%%%%++++%%%%%%%%%%%%%%%%$$$$",
"%%%%%%%%%%%%%%%%%%%%%%%%%%%%%%%%%%%%%%%%++++%%%%%%%%%%%%%%%%$$$$",
"%%%%                    @@@@@@@@                            %%%%",
"%%%%                    @@@@@@@@                            %%%%",
"%%%%                    @@@@@@@@                            %%%%",
"%%%%                    @@@@@@@@                            %%%%",
"%%%%OOOOOOOO    ========@@@@@@@@            @@@@@@@@        %%%%",
"%%%%OOOOOOOO    ========@@@@@@@@            @@@@@@@@        %%%%",
"%%%%OOOOOOOO    ========@@@@@@@@            @@@@@@@@        %%%%",
"%%%%OOOOOOOO    ========@@@@@@@@            @@@@@@@@        %%%%",
"++++--------****========@@@@@@@@oooooooo....@@@@@@@@********++++",
"++++--------****========@@@@@@@@oooooooo....@@@@@@@@********++++",
"++++--------****========@@@@@@@@oooooooo....@@@@@@@@********++++",
"++++--------****========@@@@@@@@oooooooo....@@@@@@@@********++++",
"$$$$OOOOOOOO****========        oooooooo....@@@@@@@@--------$$$$",
"$$$$OOOOOOOO****========        oooooooo....@@@@@@@@--------$$$$",
"$$$$OOOOOOOO****========        oooooooo....@@@@@@@@--------$$$$",
"$$$$OOOOOOOO****========        oooooooo....@@@@@@@@--------$$$$",
"$$$$OOOOOOOO****========        ....oooooooo@@@@@@@@********$$$$",
"$$$$OOOOOOOO****========        ....oooooooo@@@@@@@@********$$$$",
"$$$$OOOOOOOO****========        ....oooooooo@@@@@@@@********$$$$",
"$$$$OOOOOOOO****========        ....oooooooo@@@@@@@@********$$$$",
"&&&&OOOOOOOO****========@@@@@@@@....oooooooo@@@@@@@@********$$$$",
"&&&&OOOOOOOO****========@@@@@@@@....oooooooo@@@@@@@@********$$$$",
"&&&&OOOOOOOO****========@@@@@@@@....oooooooo@@@@@@@@********$$$$",
"&&&&OOOOOOOO****========@@@@@@@@....oooooooo@@@@@@@@********$$$$",
"++++++++++++++++++++++++++++++++++++++++++++++++++++++++++++++++",
"++++++++++++++++++++++++++++++++++++++++++++++++++++++++++++++++",
"++++++++++++++++++++++++++++++++++++++++++++++++++++++++++++++++",
"++++++++++++++++++++++++++++++++++++++++++++++++++++++++++++++++",
"&&&&$$$$$$$$$$$$$$$$&&&&&&&&&&&&$$$$$$$$$$$$++++$$$$$$$$$$$$$$$$",
"&&&&$$$$$$$$$$$$$$$$&&&&&&&&&&&&$$$$$$$$$$$$++++$$$$$$$$$$$$$$$$",
"&&&&$$$$$$$$$$$$$$$$&&&&&&&&&&&&$$$$$$$$$$$$++++$$$$$$$$$$$$$$$$",
"&&&&$$$$$$$$$$$$$$$$&&&&&&&&&&&&$$$$$$$$$$$$++++$$$$$$$$$$$$$$$$",
"$$$$                                            ========    $$$$",
"$$$$                                            ========    $$$$",
"$$$$                                            ========    $$$$",
"$$$$                                            ========    $$$$",
"&&&&            oooooooo            ########    ========    $$$$",
"&&&&            oooooooo            ########    ========    $$$$",
"&&&&            oooooooo            ########    ========    $$$$",
"&&&&            oooooooo            ########    ========    $$$$",
"++++XXXXXXXXXXXXoooooooo    ....@@@@--------oooo========****++++",
"++++XXXXXXXXXXXXoooooooo    ....@@@@--------oooo========****++++",
"++++XXXXXXXXXXXXoooooooo    ....@@@@--------oooo========****++++",
"++++XXXXXXXXXXXXoooooooo    ....@@@@--------oooo========****++++",
"&&&&XXXXXXXXXXXXoooooooo====....@@@@--------oooo========****$$$$",
"&&&&XXXXXXXXXXXXoooooooo====....@@@@--------oooo========****$$$$",
"&&&&XXXXXXXXXXXXoooooooo====....@@@@--------oooo========****$$$$",
"&&&&XXXXXXXXXXXXoooooooo====....@@@@--------oooo========****$$$$",
"&&&&XXXXXXXXXXXXoooooooo====@@@@....########oooo========****$$$$",
"&&&&XXXXXXXXXXXXoooooooo====@@@@....########oooo========****$$$$",
"&&&&XXXXXXXXXXXXoooooooo====@@@@....########oooo========****$$$$",
"&&&&XXXXXXXXXXXXoooooooo====@@@@....########oooo========****$$$$",
"&&&&XXXXXXXXXXXXoooooooo====@@@@....########oooo========****$$$$",
"&&&&XXXXXXXXXXXXoooooooo====@@@@....########oooo========****$$$$",
"&&&&XXXXXXXXXXXXoooooooo====@@@@....########oooo========****$$$$",
"&&&&XXXXXXXXXXXXoooooooo====@@@@....########oooo========****$$$$",
"++++++++++++++++++++++++++++++++++++++++++++++++++++++++++++++++",
"++++++++++++++++++++++++++++++++++++++++++++++++++++++++++++++++",
"++++++++++++++++++++++++++++++++++++++++++++++++++++++++++++++++",
"++++++++++++++++++++++++++++++++++++++++++++++++++++++++++++++++"
};
