/* XPM */
static char *cobblestone[] = {
/* columns rows colors chars-per-pixel */
"64 64 112 2 ",
"   c #343434",
".  c #353535",
"X  c #363636",
"o  c #373737",
"O  c #383838",
"+  c #393939",
"@  c #3A3A3A",
"#  c #3B3B3B",
"$  c #3C3C3C",
"%  c #3D3D3D",
"&  c #3E3E3E",
"*  c #3F3F3F",
"=  c #404040",
"-  c #414141",
";  c #424242",
":  c #434343",
">  c #444444",
",  c #454545",
"<  c #464646",
"1  c gray28",
"2  c #484848",
"3  c #494949",
"4  c #4A4A4A",
"5  c #4B4B4B",
"6  c #4C4C4C",
"7  c #4D4D4D",
"8  c #4E4E4E",
"9  c #4F4F4F",
"0  c #505050",
"q  c #515151",
"w  c #525252",
"e  c #535353",
"r  c #545454",
"t  c #555555",
"y  c #565656",
"u  c #575757",
"i  c #585858",
"p  c #595959",
"a  c #5A5A5A",
"s  c #5B5B5B",
"d  c #5C5C5C",
"f  c #5D5D5D",
"g  c gray37",
"h  c #5F5F5F",
"j  c #606060",
"k  c #616161",
"l  c #626262",
"z  c #636363",
"x  c #646464",
"c  c #656565",
"v  c #666666",
"b  c #676767",
"n  c #686868",
"m  c #696969",
"M  c #6A6A6A",
"N  c #6B6B6B",
"B  c #6C6C6C",
"V  c #6D6D6D",
"C  c #6E6E6E",
"Z  c #6F6F6F",
"A  c #707070",
"S  c #717171",
"D  c #727272",
"F  c #737373",
"G  c #747474",
"H  c #757575",
"J  c #767676",
"K  c #777777",
"L  c #787878",
"P  c #797979",
"I  c #7A7A7A",
"U  c #7B7B7B",
"Y  c #7C7C7C",
"T  c #7D7D7D",
"R  c #7E7E7E",
"E  c #7F7F7F",
"W  c #808080",
"Q  c #818181",
"!  c #828282",
"~  c #838383",
"^  c #848484",
"/  c #858585",
"(  c #868686",
")  c #878787",
"_  c #888888",
"`  c #898989",
"'  c #8A8A8A",
"]  c #8B8B8B",
"[  c #8C8C8C",
"{  c #8D8D8D",
"}  c #8E8E8E",
"|  c #8F8F8F",
" . c #909090",
".. c #919191",
"X. c #929292",
"o. c #939393",
"O. c #949494",
"+. c #959595",
"@. c #969696",
"#. c #979797",
"$. c #989898",
"%. c #999999",
"&. c #9A9A9A",
"*. c #9B9B9B",
"=. c #9C9C9C",
"-. c #9D9D9D",
";. c #A2A2A2",
":. c #A3A3A3",
">. c #A4A4A4",
",. c #A5A5A5",
"<. c #A7A7A7",
"1. c #A8A8A8",
/* pixels */
"M M m M %.&.&.%.g g g g ; > : : : : : : : : > 1 W ~ ~ / :.>.>.:.-.*.*.@.q 6 6 7 n M M N } | | } I P I U k k k j 5 6 6 6 6 6 6 6 ",
"M M m M %.&.&.%.h g g g - > : : : : : : : : > 1 W ~ ~ / :.>.>.:.-.*.&.@.q 6 7 7 n M M N } | | { I P I P k k k j 5 6 6 6 6 6 6 6 ",
"m m m m *.&.&.&.h g g g : , : > : : ; > : : : < Q ~ ~ ( :.>.>.:.*.%.*.@.0 5 6 4 n m m V }  .| | U I P I j j h j 6 4 4 5 6 5 5 5 ",
"m m n N %.&.%.#.f h h h ; > : : ; : : < ; - ; , ! ^ ^ ^ :.,.>.;.*.&.%.O.0 4 3 9 b n n M { | |  .Y Y U Y k h k j 5 5 5 6 5 6 7 7 ",
"&.&.*.%.%.&.*.%.t r r e X o X O c c c v L P P G 6 6 6 0 F K K K L K I K j h h f e e e e 6 5 5 6 d f f g 3 5 5 7 m M M n F H G H ",
"&.&.&.&.&.&.&.%.y r r e . X . o z x v c L I L J 7 6 6 8 G L K K P P P L j g g s t r r r 5 6 6 6 f g d h 5 6 6 5 m M M n G H J H ",
"&.&.&.&.%.&.&.%.r r r e X X X X l x c c L L P H 6 6 6 8 F L K K P P L L h f g d y e r r 4 6 6 6 f g f f 6 6 7 5 n M M n G H H H ",
"%.%.$.*.$.$.$.$.r r t w o o   X z c c v L L L K 9 5 5 7 G K J H P P K P h g f d y e e r 4 5 7 8 d h h g 6 5 6 5 m b n b H H H H ",
"H H J G h h h g ; > > < w e e t ! ^ ^ / %.&.&.%.J H J S - @ & * f g g g r r r i G K K K ( ' _ ( 9 4 6 6 G H H G X. . .| ;.>.:.:.",
"H H H J f g g g > : : ; t e t y ! ~ ! ~ %.&.&.$.K H H S = @ # % d h g h t r t t J I P I _ ' ` ) 8 4 5 7 D H H F | | | } ,.;.>.>.",
"J G K H g g g d : : : ; t e y y ! ~ ! ^ %.&.&.$.K H G S = @ # % d g f g r t r t K L I P _ ' ` ( 7 5 5 7 D J H G | | | { ,.;.>.>.",
"H H H F h f f s : : : ; r y u i ~ ~ ^ ( %.$.$.$.P H G S * & * - f g g s u y u y K U I Y ` ' ` _ 7 4 3 9 F G G S | | | { :.;.;.;.",
"h h h g w e e r 4 6 5 7 J L K K #.%.&.&.K J J H n N N M g f s p 6 4 5 7 G K L J #.&.&.&.1.1.<.>.k h h g > , < < H G G J M M N N ",
"g g f h r r w r 5 5 5 6 H P P I %.&.*.$.K J H H N M M n j h j h 8 6 3 9 K P I K $.&.&.*.1.1.1.>.l g g g ; ; : - J H J H m n M M ",
"g g g g t r e e 5 6 6 7 L K P U &.&.*.&.K H H F m M M m h h g f 7 6 5 8 J P I L %.&.&.=.<.1.<.>.l f f f : : : : H J H G m M M M ",
"d d d d r e w w 4 5 5 6 L P P U $.#.%.@.K J H G b n n b g g d d 8 8 6 q G J L J @.$.$.%.,.,.,.;.l f g g : : : ; G G F G m m M M ",
"o o X X : > : > & & % & H L P P C V C C Q Q Q W 9 8 8 7 > < > 1 S D F S 8 6 6 7 n N N N N B B N c x x c : : : - g h h h M M M M ",
". .     ; ; ; : $ $ $ % H L I L V N N B Q ~ ! W 9 6 6 5 : > ; < D G H F 7 4 5 5 v M M m M m n n c z x c : : : - h g g h m M M M ",
"    X . : : : - % $ $ * H K K K B N V N ! ^ ^ Q 9 5 5 4 : : ; < F H G F 6 4 3 5 m m M M M M m N x z x c : : : > d d d f n M M M ",
". . . . 1 , , 1 % $ $ * G P J H m m N N E E E R 9 4 4 3 - : : < F H G F q 9 9 r x m m m m m m b z z x x : : : , g f f h N M M m ",
"; ; - : D G F D t t y t < 1 1 2 r t t e 9 9 9 7 , : : , - : : < F H G H +.#.@.O.w 6 6 6 6 6 6 8 x x c v : : : : 7 6 6 7 a d d d ",
": : ; : G H J H i y y u : > > , e r r e 5 6 6 4 , : : : : : : < F H H J $.&.&.+.0 6 6 6 6 6 6 8 x c c b : : : , 4 6 6 5 p s s s ",
": : ; : H H J H u y u u , , > , e r r r 5 5 6 5 > : : : : ; : < F H G J $.&.%.@.q 6 6 5 6 6 6 7 c c x v > : : > 5 6 6 5 p s a s ",
", , , ; H J K J a i i i < ; ; : q e r y 5 4 5 4 ; , , > , : ; , H J H L #.&.&.@.q 8 8 8 7 5 6 7 x c x x 3 1 < < q 0 0 q i a p p ",
"D D D D %.%.%.$.W Q ! T , - - - 3 4 4 5 * $ $ % 5 4 3 6 f d d j $.%.$.#.{ { [ | D D D S M v b v 1 , < < W Q Q Q [ [ [ } 3 6 5 6 ",
"H H G H &.&.&.&.~ ~ ~ Q ; - ; ; 3 3 4 2 & % % % 4 6 6 6 g f g j @.&.%.%.} } { { K H J G M M M m , ; : < Q ~ ~ ~ } | | | 6 6 6 6 ",
"H H H H %.&.&.&.~ ~ ~ ! ; - ; ; 3 3 3 2 & % % $ 4 6 6 5 g f f j #.&.%.&.} } } { K H H G M M M n , : : < W ~ ! ~ | | | | 5 6 6 6 ",
"J J J J &.&.&.*.! ! ! Q : - ; - 5 6 8 5 - = = - 9 q q 0 g g f l O.#.%.@.{ [ { ] J G F J n m m n , > > 1 Q ^ ^ /  . . ...3 5 6 6 ",
"' ' _ ) X.X.....M N N m ; = ; : Z S G D W E W ! o.+.+.o.q 5 5 8 H K L K J J H H m N N m e t r y 3 2 6 0 [ | | | &.&.%.#.3 5 6 6 ",
"' ' ] _ X...X.X.M m m n ; ; ; > G J J J ! ! ! ^ &.*.*.@.0 5 6 9 F H G J J H H K m M M M r r r e 6 6 4 8 [ } } | %.%.&.*.4 6 6 6 ",
"' ' ' ` ..o.o. .m M M b ; - ; : D H H J ! ~ ~ ~ &.&.&.+.q 5 6 9 D G H H H H G H m M M n r r r e 5 5 5 8 {  .| } &.&.&.&.5 5 6 6 ",
"` ' ' _ }  .| } M M M b ; = - : S D D G ~ / / ^ $.#.#.X.q 4 6 9 S G G G D F D F n n n v e r r w 7 8 7 0 ] { } { +.@.@.@.7 6 7 7 ",
"L L L I A A A A m M M b = % & & < < 1 6 ] } | } P K K H 0 4 6 8 n N M M i u u r 9 7 7 6 > > > , v v n n J K K K l l l k e w e w ",
"K J K P C V V C M M M n = $ & * : : > 2 [  . .{ J H H D 8 4 6 8 b M b b t r t q 6 4 4 5 ; : : , b n n m J J J G h g g g e e e r ",
"L L K L B V V C m m m m & % & & : : > 2 [ } } { G G H F 8 5 5 8 b N N m r e r e 7 5 5 6 , > : , c m m M G G G H s h h d t r e e ",
"L P L P B V B V n m m v * = & & : > < 1 ' { { { J G G S 8 6 6 8 v v c v r w r r 7 5 5 4 < 1 < 2 n M b n G G F J f s s d y w r r ",
"C C C Z h h h f < < < , d d f d 8 7 7 7 N B N N j j j h t r e w ; = * - % & % & : > : 1 F K J G < > , , g j h h . o o O - : ; ; ",
"Z Z C Z g g g f : : : : h f g f 8 7 7 7 m M M n j g g g y t r e % $ % % % % $ & ; : : , H L P K > : : : f g f j   . . . - ; ; ; ",
"C C C C g g g g : : : ; h g g f 8 7 8 7 n m n n h f f f t r e w % $ % % & % % % ; : : < J I P K > ; > : f g f h X       = = - - ",
"C C V B g a s g > , , , f f h g 9 9 w 7 v n n b f f g g r t e w $ $ # @ = * = - 1 1 1 3 P K I J 3 < < , s f g s # $ # % 3 2 2 2 ",
"g g h g r y t t 3 4 4 2 9 4 6 8 F F D D 1 : : < r q q 9 , > > > $ # & & U T T W [ [ [ ] .. .| } K G F K < < < 1 _ _ _ ] +.+.+.+.",
"g g g g t r e e 6 6 6 6 6 7 6 7 F G G F < : : , q w e q > : : ; & $ @ : T Q ! ! X.X...X.X.X.X. .I P L H , : : > } | |  .&.&.&.&.",
"g g g g t r e r 5 6 6 6 6 7 6 7 F H H F < : : , q q w q , : : ; % $ @ : T Q ! ! X.X.X.X.X.X.X. .I P L J , : : > } | |  .&.&.&.&.",
"d d g s t r r q 4 5 5 4 5 8 7 9 G H L H 2 1 < 2 0 w q 0 > ; ; - * = - : T W Q W .. . . ... ...} L K J K , : : , |  .| X.#.%.%.%.",
"o o o o o . X o . . . o Z G F H #.$.$.@.! Q Q T = $ $ # % $ $ - A F F D k g h k H P P L N N N N j h j j - : : 1 @.&.&.%.F J J J ",
". . . X X X X . X . . X G H H L %.%.*.&.~ ~ ! R ; $ $ $ % # $ = D H G J h g g k L L L J m M M M h g g g > : : < %.&.&.&.G K H G ",
". . . . . . . . . . . X H G J K %.%.&.%.^ ~ ~ E - % % $ # # # * S H G H h g g j K P P K m m M M g h f g : : : > $.&.&.&.F K H G ",
"X X o   + O O +   . . . H F H K %.%.*.&.^ ~ ~ R = % % $ & * * ; F J J J h h h k G K K H m n M M f f g f , , > < @.$.$.$.D H G G ",
"e w e e G G F S > > : : ! ~ ~ ^  ...| [ J H J J 1 - - 2 I T T E #.&.$.&.J F G F 2 > > 1 k g g h e r r t J K L H Z A A A w r r r ",
"r r e w H H J J ; : : : ~ ! ~ ~ { | | { J H G G , ; ; < Y Q W Q %.*.$.%.K G H S < : : , d g g g e e e t L P K L V Z Z A e t r r ",
"e e t r K K L J : : : , W ^ ^ ^ } } | [ J H H F , > > 2 U Q Q ! #.*.%.%.J F G S < ; ; : f g f d i e w y K L P I V C C Z r e r r ",
"w w e w G H H H > ; ; : E ^ ~ ^  . . .} J J G D > : : < Y ! W ! %.$.%.&.K H H S > : ; < d f h d y u t r G H H J C V V V y e r r ",
"H H H F ..| | [ 7 6 6 6 H G H H H H J J m m m b o . . @ @.%.%.@.P G H J g h g g & % % $ 5 5 5 8 b n n b < , , , > : : - g g g g ",
"H H J D ..|  .{ 8 6 6 7 F H J H H H G H N M M b O . . + @.%.&.#.P G G H h g f f $ % % % 3 6 6 7 m n v n : : : : : : : ; h g g g ",
"H H J F ..| | { 8 7 6 6 G G G G H H G H N m m b X   . @ @.%.&.#.L H G H g f f g & % % % 4 6 6 7 N m n M : : : : : : : ; j g f f ",
"F F G J | } | | 7 5 5 7 F G H H G G G H m b b c o . . $ +.$.%.@.K G H F j k h p & % & @ 4 4 4 5 m m n m , > , > - > > : f h h h ",
" . . .| ! ~ ! ~ G F F F 7 4 3 5 n m m m g f d s , : : , H G H H B m B n 3 1 1 3 4 5 5 7 n b m B $.=.*.*.G G G D M n n n : ; ; ; ",
"| | |  .~ ~ ~ ! J H H F 8 4 6 8 n m n n f d d s : : : < D H H F B M n m 2 1 1 2 4 6 6 6 M n n M %.%.%.&.H H H G n M M n : ; : : ",
"| | |  .~ ~ ~ ! J H H F 8 4 6 8 n n n n f d d s : : : < D J H F N M n m 2 1 1 2 5 6 6 6 M m n M %.%.%.&.H H J G m M M m > ; : : ",
"| | | | ~ ^ ^ ^ P J J H 8 3 4 7 n m M b g d d d - > , < A K H G N N B n 4 3 1 , 5 5 5 8 m n n M &.&.*.*.K J J J N M M b > > > > ",
"G F F F b b b b d d d g e r t e - - ; > u p u s ( / / ^ 2 : : , 8 9 8 8 5 5 5 w D J K F g f g g G F D F d d d f w e w u + # # $ ",
"J K J J M M M m g g f f e t r e , > : > y y y a ! / ( Q 2 ; : > 9 0 0 0 6 6 6 7 D H H F j h g j H H G J h f g g e r t t @ % % % ",
"H H H J M M M m f g g f r r t e : ; : ; t u y p ~ / / ! 2 : : , 9 0 q 9 7 6 7 8 D H H G h g g h F G F H g g g g e r r t + % % % ",
"H H J H M M M n f g g f r t r e > ; : ; y y y p ^ / / ! 2 : : , 9 0 q 9 7 6 6 8 D H H G h g g h F H F H g g g f e t r r + $ % % "
};
