/* XPM */
static char *cow32[] = {
/* columns rows colors chars-per-pixel */
"32 32 9 1 ",
"  c #000000",
". c #7D0E0E",
"X c gray26",
"o c gray38",
"O c #B71C1C",
"+ c #90A4AE",
"@ c #B0BEC5",
"# c #CFD8DC",
"$ c white",
/* pixels */
"OOOOOOOOOOOO@@@@@@@@oooooooo....",
"OOOOOOOOOOOO@@@@@@@@oooooooo....",
"OOOOOOOOOOOO@@@@@@@@oooooooo....",
"OOOOOOOOOOOO@@@@@@@@oooooooo....",
"OOOOOOOOOOOO########@@@@....OOOO",
"OOOOOOOOOOOO########@@@@....OOOO",
"OOOOOOOOOOOO########@@@@....OOOO",
"OOOOOOOOOOOO########@@@@....OOOO",
"        OOOO@@@@@@@@OOOO        ",
"        OOOO@@@@@@@@OOOO        ",
"        OOOO@@@@@@@@OOOO        ",
"        OOOO@@@@@@@@OOOO        ",
"        OOOO++++OOOOOOOO        ",
"        OOOO++++OOOOOOOO        ",
"        OOOO++++OOOOOOOO        ",
"        OOOO++++OOOOOOOO        ",
"OOOOOOOOOOOOOOOOOOOOOOOOOOOOOOOO",
"OOOOOOOOOOOOOOOOOOOOOOOOOOOOOOOO",
"OOOOOOOOOOOOOOOOOOOOOOOOOOOOOOOO",
"OOOOOOOOOOOOOOOOOOOOOOOOOOOOOOOO",
"OOOO....$$$$$$$$$$$$$$$$....OOOO",
"OOOO....$$$$$$$$$$$$$$$$....OOOO",
"OOOO....$$$$$$$$$$$$$$$$....OOOO",
"OOOO....$$$$$$$$$$$$$$$$....OOOO",
"OOOO$$$$    oooooooo    $$$$....",
"OOOO$$$$    oooooooo    $$$$....",
"OOOO$$$$    oooooooo    $$$$....",
"OOOO$$$$    oooooooo    $$$$....",
"OOOO####ooooXXXXXXXXoooo$$$$OOOO",
"OOOO####ooooXXXXXXXXoooo$$$$OOOO",
"OOOO####ooooXXXXXXXXoooo$$$$OOOO",
"OOOO####ooooXXXXXXXXoooo$$$$OOOO"
};
