/* XPM */
static char *cow8[] = {
/* columns rows colors chars-per-pixel */
"8 8 9 1 ",
"  c #000000",
". c #7D0E0E",
"X c gray26",
"o c gray38",
"O c #B71C1C",
"+ c #90A4AE",
"@ c #B0BEC5",
"# c #CFD8DC",
"$ c white",
/* pixels */
"OOO@@oo.",
"OOO##@.O",
"  O@@O  ",
"  O+OO  ",
"OOOOOOOO",
"O.$$$$.O",
"O$ oo $.",
"O#oXXo$O"
};
