/* XPM */
static char *grass[] = {
/* columns rows colors chars-per-pixel */
"64 64 201 2 ",
"   c #5A3D28",
".  c #59432A",
"X  c #5B452A",
"o  c #5D432C",
"O  c #5F422C",
"+  c #5C472C",
"@  c #5F482C",
"#  c #5F4B2E",
"$  c #5B4D2D",
"%  c #5D512D",
"&  c #5C552E",
"*  c #5F542F",
"=  c #5F552F",
"-  c #5D572F",
";  c #5B4730",
":  c #61432D",
">  c #61432E",
",  c #62422E",
"<  c #63432E",
"1  c #62442E",
"2  c #63452E",
"3  c #65452E",
"4  c #64452F",
"5  c #64462F",
"6  c #62532F",
"7  c #664730",
"8  c #664731",
"9  c #664934",
"0  c #674A35",
"q  c #634C35",
"w  c #644E37",
"e  c #684831",
"r  c #694931",
"t  c #6A4932",
"y  c #694A32",
"u  c #6A4A32",
"i  c #6C4B33",
"p  c #684E31",
"a  c #704F35",
"s  c #724F36",
"d  c #734E37",
"f  c #645537",
"g  c #645A38",
"h  c #755238",
"j  c #765338",
"k  c #775338",
"l  c #775239",
"z  c #765339",
"x  c #775339",
"c  c #775439",
"v  c #77543A",
"b  c #75553C",
"n  c #76563D",
"m  c #79543A",
"M  c #79553A",
"N  c #7A553A",
"B  c #7A563A",
"V  c #7A563B",
"C  c #7B563B",
"Z  c #7B573B",
"A  c #7C573B",
"S  c #7D573B",
"D  c #79573E",
"F  c #7C573C",
"G  c #78583F",
"H  c #7C583C",
"J  c #7D583C",
"K  c #7D593C",
"L  c #7C583D",
"P  c #7D593D",
"I  c #7E593C",
"U  c #7F593C",
"Y  c #7E593D",
"T  c #7F593D",
"R  c #7F5A3D",
"E  c #765842",
"W  c #795840",
"Q  c #7B5940",
"!  c #795942",
"~  c #7D5941",
"^  c #7D5B42",
"/  c #665E59",
"(  c #6A615C",
")  c #72675F",
"_  c #805A3E",
"`  c #815B3E",
"'  c #825C3F",
"]  c #835C3F",
"[  c #805D43",
"{  c #845D40",
"}  c #815E44",
"|  c #896042",
" . c #8B6243",
".. c #8A6144",
"X. c #8A6344",
"o. c #8B6344",
"O. c #8B6444",
"+. c #8C6444",
"@. c #8C6445",
"#. c #8D6545",
"$. c #8E6545",
"%. c #8E6645",
"&. c #8D6546",
"*. c #8D6646",
"=. c #8E6646",
"-. c #8F6646",
";. c #8E684A",
":. c #906645",
">. c #906746",
",. c #906747",
"<. c #916847",
"1. c #926748",
"2. c #906848",
"3. c #916848",
"4. c #916948",
"5. c #926848",
"6. c #926948",
"7. c #936948",
"8. c #956A48",
"9. c #966B49",
"0. c #956B4A",
"q. c #966B4A",
"w. c #976C4A",
"e. c #976D4A",
"r. c #956D4E",
"t. c #966F4F",
"y. c #996D4A",
"u. c #9A6F4C",
"i. c #9B704D",
"p. c #9D714E",
"a. c #9E714E",
"s. c #9A7251",
"d. c #A27450",
"f. c #A77652",
"g. c #A67752",
"h. c #A77853",
"j. c #A87853",
"k. c #A97954",
"l. c #AA7A54",
"z. c #AB7A54",
"x. c #AB7B55",
"c. c #AC7B54",
"v. c #AC7B55",
"b. c #AD7C55",
"n. c #AE7C55",
"m. c #AC7C56",
"M. c #AD7C56",
"N. c #AE7C56",
"B. c #AE7D56",
"V. c #AE7D57",
"C. c #AF7E57",
"Z. c #B07E57",
"A. c #B07F58",
"S. c #817973",
"D. c #857B73",
"F. c #877C74",
"G. c #588C2D",
"H. c #56962C",
"J. c #5F8B34",
"K. c #5F9435",
"L. c #69933E",
"P. c #629D38",
"I. c #629E38",
"U. c #669F3C",
"Y. c #61A137",
"T. c #61A237",
"R. c #66A53C",
"E. c #66A73C",
"W. c #69A03E",
"Q. c #69A33E",
"!. c #6AA43F",
"~. c #6AA73F",
"^. c #68A83E",
"/. c #68A93E",
"(. c #68AA3E",
"). c #6B9640",
"_. c #6B9940",
"`. c #6BA240",
"'. c #6FA743",
"]. c #6BA840",
"[. c #6AAB40",
"{. c #6BAD41",
"}. c #6FA845",
"|. c #6FAD44",
" X c #7BA64C",
".X c #75B34A",
"XX c #74B44A",
"oX c #76B44B",
"OX c #76B54B",
"+X c #75B74B",
"@X c #79B74F",
"#X c #79B94F",
"$X c #7FB954",
"%X c #80A352",
"&X c #80B450",
"*X c #8CB15C",
"=X c #8CB15D",
"-X c #87BA58",
";X c #8EBF5E",
":X c #8DC15E",
">X c #90C361",
/* pixels */
"XXXXXXXX+X+X+X+X.X.X.X.X].].].].~.~.~.~.`.`.`.`.Y.Y.Y.Y.{.{.{.{.#X#X#X#X@X@X@X@X|.|.|.|.^.^.^.^.(.(.(.(.T.T.T.T.H.H.H.H.[.[.[.[.",
"XXXXXXXX+X+X+X+X.X.X.X.X].].].].~.~.~.~.`.`.`.`.Y.Y.Y.Y.{.{.{.{.#X#X#X#X@X@X@X@X|.|.|.|.^.^.^.^.(.(.(.(.T.T.T.T.H.H.H.H.[.[.[.[.",
"XXXXXXXX+X+X+X+X.X.X.X.X].].].].~.~.~.~.`.`.`.`.Y.Y.Y.Y.{.{.{.{.#X#X#X#X@X@X@X@X|.|.|.|.^.^.^.^.(.(.(.(.T.T.T.T.H.H.H.H.[.[.[.[.",
"XXXXXXXX+X+X+X+X.X.X.X.X].].].].~.~.~.~.`.`.`.`.Y.Y.Y.Y.{.{.{.{.#X#X#X#X@X@X@X@X|.|.|.|.^.^.^.^.(.(.(.(.T.T.T.T.H.H.H.H.[.[.[.[.",
"OXOXOXOX'.'.'.'.-X-X-X-X&X&X&X&X X X X X= = = = U.U.U.U.I.I.I.I.R.R.R.R.:X:X:X:X;X;X;X;XoXoXoXoXP.P.P.P././././.E.E.E.E.Q.Q.Q.Q.",
"OXOXOXOX'.'.'.'.-X-X-X-X&X&X&X&X X X X X= = = = U.U.U.U.I.I.I.I.R.R.R.R.:X:X:X:X;X;X;X;XoXoXoXoXP.P.P.P././././.E.E.E.E.Q.Q.Q.Q.",
"OXOXOXOX'.'.'.'.-X-X-X-X&X&X&X&X X X X X= = = = U.U.U.U.I.I.I.I.R.R.R.R.:X:X:X:X;X;X;X;XoXoXoXoXP.P.P.P././././.E.E.E.E.Q.Q.Q.Q.",
"OXOXOXOX'.'.'.'.-X-X-X-X&X&X&X&X X X X X= = = = U.U.U.U.I.I.I.I.R.R.R.R.:X:X:X:X;X;X;X;XoXoXoXoXP.P.P.P././././.E.E.E.E.Q.Q.Q.Q.",
"%X%X%X%Xg g g g =X=X=X=X!.!.!.!.W.W.W.W.$ $ $ $ L.L.L.L.& & & & }.}.}.}.$X$X$X$X>X>X>X>X*X*X*X*X* * * * G.G.G.G.K.K.K.K.% % % % ",
"%X%X%X%Xg g g g =X=X=X=X!.!.!.!.W.W.W.W.$ $ $ $ L.L.L.L.& & & & }.}.}.}.$X$X$X$X>X>X>X>X*X*X*X*X* * * * G.G.G.G.K.K.K.K.% % % % ",
"%X%X%X%Xg g g g =X=X=X=X!.!.!.!.W.W.W.W.$ $ $ $ L.L.L.L.& & & & }.}.}.}.$X$X$X$X>X>X>X>X*X*X*X*X* * * * G.G.G.G.K.K.K.K.% % % % ",
"%X%X%X%Xg g g g =X=X=X=X!.!.!.!.W.W.W.W.$ $ $ $ L.L.L.L.& & & & }.}.}.}.$X$X$X$X>X>X>X>X*X*X*X*X* * * * G.G.G.G.K.K.K.K.% % % % ",
"w w w w ( ( ( ( q q q q 6 6 6 6 _._._._.# # # # o o o o + + + + J.J.J.J.- - - - ).).).).f f f f d d d d @ @ @ @ X X X X s s s s ",
"w w w w ( ( ( ( q q q q 6 6 6 6 _._._._.# # # # o o o o + + + + J.J.J.J.- - - - ).).).).f f f f d d d d @ @ @ @ X X X X s s s s ",
"w w w w ( ( ( ( q q q q 6 6 6 6 _._._._.# # # # o o o o + + + + J.J.J.J.- - - - ).).).).f f f f d d d d @ @ @ @ X X X X s s s s ",
"w w w w ( ( ( ( q q q q 6 6 6 6 _._._._.# # # # o o o o + + + + J.J.J.J.- - - - ).).).).f f f f d d d d @ @ @ @ X X X X s s s s ",
"........D D D D 1.1.1.1.f.f.f.f.p p p p X.X.X.X.l l l l a a a a . . . .         ; ; ; ; / / / / Q Q Q Q | | | | , , , , N N N N ",
"........D D D D 1.1.1.1.f.f.f.f.p p p p X.X.X.X.l l l l a a a a . . . .         ; ; ; ; / / / / Q Q Q Q | | | | , , , , N N N N ",
"........D D D D 1.1.1.1.f.f.f.f.p p p p X.X.X.X.l l l l a a a a . . . .         ; ; ; ; / / / / Q Q Q Q | | | | , , , , N N N N ",
"........D D D D 1.1.1.1.f.f.f.f.p p p p X.X.X.X.l l l l a a a a . . . .         ; ; ; ; / / / / Q Q Q Q | | | | , , , , N N N N ",
"J J J J 3 3 3 3 ,.,.,.,.0.0.0.0.~ ~ ~ ~ =.=.=.=.2 2 2 2 1 1 1 1 < < < < j j j j m m m m 9 9 9 9 v v v v J J J J Z Z Z Z z.z.z.z.",
"J J J J 3 3 3 3 ,.,.,.,.0.0.0.0.~ ~ ~ ~ =.=.=.=.2 2 2 2 1 1 1 1 < < < < j j j j m m m m 9 9 9 9 v v v v J J J J Z Z Z Z z.z.z.z.",
"J J J J 3 3 3 3 ,.,.,.,.0.0.0.0.~ ~ ~ ~ =.=.=.=.2 2 2 2 1 1 1 1 < < < < j j j j m m m m 9 9 9 9 v v v v J J J J Z Z Z Z z.z.z.z.",
"J J J J 3 3 3 3 ,.,.,.,.0.0.0.0.~ ~ ~ ~ =.=.=.=.2 2 2 2 1 1 1 1 < < < < j j j j m m m m 9 9 9 9 v v v v J J J J Z Z Z Z z.z.z.z.",
"j.j.j.j.Z Z Z Z T U U U } } } } F.F.F.F.^ ^ ^ ^ N N N N l.l.l.l.x.x.x.x.T T T T N.N.N.N.c.c.c.c.R R R R @.@.@.@.` ` ` ` w.w.w.w.",
"j.j.j.j.Z Z Z Z U U U U } } } } F.F.F.F.^ ^ ^ ^ N N N N l.l.l.l.x.x.x.x.T T T T N.N.N.N.c.c.c.c.R R R R @.@.@.@.` ` ` ` w.w.w.w.",
"j.j.j.j.Z Z Z Z U U U U } } } } F.F.F.F.^ ^ ^ ^ N N N N l.l.l.l.x.x.x.x.T T T T N.N.N.N.c.c.c.c.R R R R @.@.@.@.` ` ` ` w.w.w.w.",
"j.j.j.j.Z Z Z Z U U U U } } } } F.F.F.F.^ ^ ^ ^ N N N N l.l.l.l.x.x.x.x.T T T T N.N.N.N.c.c.c.c.R R R R @.@.@.@.` ` ` ` w.w.w.w.",
"_ _ _ _ I I I I c.v.v.v.A.A.A.A.t.t.t.t.6.6.6.6.A A A A R R R R <.<.<.<.t u u u 0.0.0.0.e.e.e.e.V V V V Z Z Z Z $.$.$.$.7.7.7.7.",
"_ _ _ _ I I I I v.v.v.v.A.A.A.A.t.t.t.t.6.6.6.6.A A A A R R R R <.<.<.<.u u u u 0.0.0.0.e.e.e.e.V V V V Z Z Z Z $.$.$.$.7.7.7.7.",
"_ _ _ _ I I I I v.v.v.v.A.A.A.A.t.t.t.t.6.6.6.6.A A A A R R R R <.<.<.<.u u u u 0.0.0.0.e.e.e.e.V V V V Z Z Z Z $.$.$.$.7.7.7.7.",
"_ _ _ _ I I I I v.v.v.v.A.A.A.A.t.t.t.t.6.6.6.6.A A A A R R R R <.<.<.<.u u u u 0.0.0.0.e.e.e.e.V V V V Z Z Z Z $.$.$.$.7.7.7.7.",
"=.=.=.=.H H H H Y Y Y Y 6.6.6.6.U U U U $.$.$.$.h h h h O O O O B B B B #.#.#.#.,.,.,.,.J J J J Y Y Y Y Z Z Z Z 3 3 3 3 B B B B ",
"=.=.=.=.H H H H Y Y Y Y 6.6.6.6.U U U U $.$.$.$.h h h h O O O O B B B B #.#.#.#.,.,.,.,.J J J J Y Y Y Y Z Z Z Z 3 3 3 3 B B B B ",
"=.=.=.=.H H H H Y Y Y Y 6.6.6.6.U U T U $.$.$.$.h h h h O O O O B B B B #.#.#.#.,.,.,.,.J J J J Y Y Y Y Z Z Z Z 3 3 3 3 B B B B ",
"=.=.=.=.H H H H Y Y Y Y 6.6.6.6.U U T T $.$.$.$.h h h h O O O O B B B B #.#.#.#.,.,.,.,.J J J J Y Y Y Y Z Z Z Z 3 3 3 3 B B B B ",
"R R R R %.%.%.%.4 4 4 4 J J J J S F F F : : : : 5 5 5 5 z z z z k k k k ` ` ` ` R R R R C C C C C.C.C.C.V.V.V.V.^ ^ ^ ^ *.*.*.*.",
"R R R R %.%.%.%.4 4 4 4 J J J J F F F F : : : : 5 5 5 5 z z z z k k k k ` ` ` ` R R R R C C C C C.C.C.C.V.V.V.V.^ ^ ^ ^ *.*.*.*.",
"R R R R %.%.%.%.4 4 4 4 J J J J F F F F : : : : 5 5 5 5 z z z z k k k k ` ` ` ` R R R R C C C C C.C.C.C.V.V.V.V.^ ^ ^ ^ *.*.*.*.",
"R R R R %.%.%.%.4 4 4 4 J J J J F F F F : : : : 5 5 5 5 z z z z k k k k ` ` ` ` R R R R C C C C C.C.C.C.V.V.V.V.^ ^ ^ ^ *.*.*.*.",
"R R R R ,.,.,.,.J J J J B.B.B.B.B.B.B.B.] ] ] ] g.g.g.g.6.6.6.6.0 0 0 0 m.m.m.m.v.v.v.v.e e e e :.:.:.:.s.s.s.s.D.D.D.D.! ! ! ! ",
"R R R R ,.,.,.,.J J J J B.B.B.B.B.B.B.B.] ] ] ] g.g.g.g.6.6.6.6.0 0 0 0 m.m.m.m.v.v.v.v.e e e e :.:.:.:.s.s.s.s.D.D.D.D.! ! ! ! ",
"R R R R ,.,.,.,.J J J J B.B.B.B.B.B.B.B.] ] ] ] g.g.g.g.6.6.6.6.0 0 0 0 m.m.m.m.v.v.v.v.e e e e :.:.:.:.s.s.s.s.D.D.D.D.! ! ! ! ",
"R R R R ,.,.,.,.J J J J B.B.B.B.B.B.B.B.] ] ] ] g.g.g.g.6.6.6.6.0 0 0 0 m.m.m.m.v.v.v.v.e e e e :.:.:.:.s.s.s.s.D.D.D.D.! ! ! ! ",
"-.-.-.-.M M M M I I I I q.q.q.q.a.a.a.a.M.M.M.M. . . . .;.;.;.;.) ) ) ) r.r.r.r.9.9.9.9.z z z z 5 5 5 5 &.&.&.&.[ [ [ [ 8 8 8 8 ",
"-.-.-.-.M M M M I I I I q.q.q.q.a.a.a.a.M.M.M.M. . . . .;.;.;.;.) ) ) ) r.r.r.r.9.9.9.9.z z z z 5 5 5 5 &.&.&.&.[ [ [ [ 8 8 8 8 ",
"-.-.-.-.M M M M I I I I q.q.q.q.a.a.a.a.M.M.M.M. . . . .;.;.;.;.) ) ) ) r.r.r.r.9.9.9.9.z z z z 5 5 5 5 &.&.&.&.[ [ [ [ 8 8 8 8 ",
"-.-.-.-.M M M M I I I I q.q.q.q.a.a.a.a.M.M.M.M. . . . .;.;.;.;.) ) ) ) r.r.r.r.9.9.9.9.z z z z 5 5 5 5 &.&.&.&.[ [ [ [ 8 8 8 8 ",
"c c c c 7 7 7 7 +.+.+.+.Y Y Y Y 2.2.2.2.i.i.i.i.v.v.v.v.' ' ' ' n n n n v v v v T T T T x x x x h h h h { { { { n.n.n.n.Z.Z.Z.Z.",
"c c c c 7 7 7 7 +.+.+.+.Y Y Y Y 2.2.2.2.i.i.i.i.v.v.v.v.' ' ' ' n n n n v v v v T T T T x x x x h h h h { { { { n.n.n.n.Z.Z.Z.Z.",
"c c c c 7 7 7 7 +.+.+.+.Y Y Y Y 2.2.2.2.i.i.i.i.v.v.v.v.' ' ' ' n n n n v v v v T T T T x x x x h h h h { { { { n.n.n.n.Z.Z.Z.Z.",
"c c c c 7 7 7 7 +.+.+.+.Y Y Y Y 2.2.2.2.i.i.i.i.v.v.v.v.' ' ' ' n n n n v v v v T T T T x x x x h h h h { { { { n.n.n.n.Z.Z.Z.Z.",
"K K K K O.O.O.O.V V V V L L L L E E E E V V V V 8.8.8.8.-.-.-.-.A A A A i i i i d.d.d.d.r r r r V V V V k.k.k.k.p.p.p.p.i.i.i.i.",
"K K K K O.O.O.O.V V V V L L L L E E E E V V V V 8.8.8.8.-.-.-.-.A A A A i i i i d.d.d.d.r r r r V V V V k.k.k.k.p.p.p.p.i.i.i.i.",
"K K K K O.O.O.O.V V V V L L L L E E E E V V V V 8.8.8.8.-.-.-.-.A A A A i i i i d.d.d.d.r r r r V V V V k.k.k.k.p.p.p.p.i.i.i.i.",
"K K K K O.O.O.O.V V V V L L L L E E E E V V V V 8.8.8.8.-.-.-.-.A A A A i i i i d.d.d.d.r r r r V V V V k.k.k.k.p.p.p.p.i.i.i.i.",
"5.5.5.5.C C C C u u u u j.j.j.j.P P P P > > > > b b b b y y y y v.v.v.v.b.b.b.b.{ { { { o.o.o.o.J J J J ' ' ' ' 6.6.6.6.4.4.4.4.",
"5.5.5.5.C C C C u u u u j.j.j.j.P P P P > > > > b b b b y y y y v.v.v.v.b.b.b.b.{ { { { o.o.o.o.J J J J ' ' ' ' 6.6.6.6.4.4.4.4.",
"5.5.5.5.C C C C u u u u j.j.j.j.P P P P > > > > b b b b y y y y v.v.v.v.b.b.b.b.{ { { { o.o.o.o.J J J J ' ' ' ' 6.6.6.6.4.4.4.4.",
"5.5.5.5.C C C C u u u u j.j.j.j.P P P P > > > > b b b b y y y y v.v.v.v.b.b.b.b.{ { { { o.o.o.o.J J J J ' ' ' ' 6.6.6.6.4.4.4.4.",
"6.6.6.6.R R R R h.h.h.h.a.a.a.a.>.>.>.>.G G G G S.S.S.S.W W W W y.y.y.y.u.u.u.u.C C C C Y Y Y Y 3.3.3.3.<.<.<.<.F F F F 2 2 2 2 ",
"6.6.6.6.R R R R h.h.h.h.a.a.a.a.>.>.>.>.G G G G S.S.S.S.W W W W y.y.y.y.u.u.u.u.C C C C Y Y Y Y 3.3.3.3.<.<.<.<.F F F F 2 2 2 2 ",
"6.6.6.6.R R R R h.h.h.h.a.a.a.a.>.>.>.>.G G G G S.S.S.S.W W W W y.y.y.y.u.u.u.u.C C C C Y Y Y Y 3.3.3.3.<.<.<.<.F F F F 2 2 2 2 ",
"6.6.6.6.R R R R h.h.h.h.a.a.a.a.>.>.>.>.G G G G S.S.S.S.W W W W y.y.y.y.u.u.u.u.C C C C Y Y Y Y 3.3.3.3.<.<.<.<.F F F F 2 2 2 2 "
};
