/* XPM */
static char *tnt[] = {
/* columns rows colors chars-per-pixel */
"64 64 9 1 ",
"  c black",
". c #900000",
"X c #A10000",
"o c #B40000",
"O c #B90000",
"+ c #C30000",
"@ c gray75",
"# c #D7D7D7",
"$ c white",
/* pixels */
"++++ooooXXXX....++++ooooXXXX....++++ooooXXXX....++++ooooXXXX....",
"++++ooooXXXX....++++ooooXXXX....++++ooooXXXX....++++ooooXXXX....",
"++++ooooXXXX....++++ooooXXXX....++++ooooXXXX....++++ooooXXXX....",
"++++ooooXXXX....++++ooooXXXX....++++ooooXXXX....++++ooooXXXX....",
"++++ooooXXXX....++++ooooXXXX....++++ooooXXXX....++++ooooXXXX....",
"++++ooooXXXX....++++ooooXXXX....++++ooooXXXX....++++ooooXXXX....",
"++++ooooXXXX....++++ooooXXXX....++++ooooXXXX....++++ooooXXXX....",
"++++ooooXXXX....++++ooooXXXX....++++ooooXXXX....++++ooooXXXX....",
"++++ooooXXXX....++++ooooXXXX....++++ooooXXXX....++++ooooXXXX....",
"++++ooooXXXX....++++ooooXXXX....++++ooooXXXX....++++ooooXXXX....",
"++++ooooXXXX....++++ooooXXXX....++++ooooXXXX....++++ooooXXXX....",
"++++ooooXXXX....++++ooooXXXX....++++ooooXXXX....++++ooooXXXX....",
"++++ooooXXXX....++++ooooXXXX....++++ooooXXXX....++++ooooXXXX....",
"++++ooooXXXX....++++ooooXXXX....++++ooooXXXX....++++ooooXXXX....",
"++++ooooXXXX....++++ooooXXXX....++++ooooXXXX....++++ooooXXXX....",
"++++ooooXXXX....++++ooooXXXX....++++ooooXXXX....++++ooooXXXX....",
"$$$$$$$$$$$$$$$$$$$$$$$$$$$$$$$$$$$$$$$$$$$$$$$$$$$$$$$$$$$$####",
"$$$$$$$$$$$$$$$$$$$$$$$$$$$$$$$$$$$$$$$$$$$$$$$$$$$$$$$$$$$$####",
"$$$$$$$$$$$$$$$$$$$$$$$$$$$$$$$$$$$$$$$$$$$$$$$$$$$$$$$$$$$$####",
"$$$$$$$$$$$$$$$$$$$$$$$$$$$$$$$$$$$$$$$$$$$$$$$$$$$$$$$$$$$$####",
"$$$$                        $$$$$$$$                        ####",
"$$$$                        $$$$$$$$                        ####",
"$$$$                        $$$$$$$$                        ####",
"$$$$                        $$$$$$$$                        ####",
"$$$$$$$$$$$$    $$$$$$$$        $$$$    $$$$$$$$    $$$$$$$$####",
"$$$$$$$$$$$$    $$$$$$$$        $$$$    $$$$$$$$    $$$$$$$$####",
"$$$$$$$$$$$$    $$$$$$$$        $$$$    $$$$$$$$    $$$$$$$$####",
"$$$$$$$$$$$$    $$$$$$$$        $$$$    $$$$$$$$    $$$$$$$$####",
"$$$$$$$$$$$$    $$$$$$$$        @@@@    $$$$$$$$    $$$$$$$$####",
"$$$$$$$$$$$$    $$$$$$$$        @@@@    $$$$$$$$    $$$$$$$$####",
"$$$$$$$$$$$$    $$$$$$$$        @@@@    $$$$$$$$    $$$$$$$$####",
"$$$$$$$$$$$$    $$$$$$$$        @@@@    $$$$$$$$    $$$$$$$$####",
"$$$$$$$$$$$$    $$$$$$$$    @@@@        $$$$$$$$    $$$$$$$$####",
"$$$$$$$$$$$$    $$$$$$$$    @@@@        $$$$$$$$    $$$$$$$$####",
"$$$$$$$$$$$$    $$$$$$$$    @@@@        $$$$$$$$    $$$$$$$$####",
"$$$$$$$$$$$$    $$$$$$$$    @@@@        $$$$$$$$    $$$$$$$$####",
"$$$$$$$$$$$$    $$$$$$$$    $$$$        $$$$$$$$    $$$$$$$$####",
"$$$$$$$$$$$$    $$$$$$$$    $$$$        $$$$$$$$    $$$$$$$$####",
"$$$$$$$$$$$$    $$$$$$$$    $$$$        $$$$$$$$    $$$$$$$$####",
"$$$$$$$$$$$$    $$$$$$$$    $$$$        $$$$$$$$    $$$$$$$$####",
"$$$$$$$$$$$$    $$$$$$$$    $$$$$$$$    $$$$$$$$    $$$$$$$$####",
"$$$$$$$$$$$$    $$$$$$$$    $$$$$$$$    $$$$$$$$    $$$$$$$$####",
"$$$$$$$$$$$$    $$$$$$$$    $$$$$$$$    $$$$$$$$    $$$$$$$$####",
"$$$$$$$$$$$$    $$$$$$$$    $$$$$$$$    $$$$$$$$    $$$$$$$$####",
"################################################################",
"################################################################",
"################################################################",
"################################################################",
"++++ooooXXXX....++++ooooXXXX....++++ooooXXXX....++++ooooXXXX....",
"++++ooooXXXX....++++ooooXXXX....++++ooooXXXX....++++ooooXXXX....",
"++++ooooXXXX....++++ooooXXXX....++++ooooXXXX....++++ooooXXXX....",
"++++ooooXXXX....++++ooooXXXX....++++ooooXXXX....++++ooooXXXX....",
"++++ooooXXXX....++++ooooXXXX....++++ooooXXXX....++++ooooXXXX....",
"++++ooooXXXX....++++ooooXXXX....++++ooooXXXX....++++ooooXXXX....",
"++++ooooXXXX....++++ooooXXXX....++++ooooXXXX....++++ooooXXXX....",
"++++ooooXXXX....++++ooooXXXX....++++ooooXXXX....++++ooooXXXX....",
"++++ooooXXXX....++++ooooXXXX....++++ooooXXXX....++++ooooXXXX....",
"++++ooooXXXX....++++ooooXXXX....++++ooooXXXX....++++ooooXXXX....",
"++++ooooXXXX....++++ooooXXXX....++++ooooXXXX....++++ooooXXXX....",
"++++ooooXXXX....++++ooooXXXX....++++ooooXXXX....++++ooooXXXX....",
"++++ooooXXXX....++++OOOOXXXX....++++ooooXXXX....++++ooooXXXX....",
"++++ooooXXXX....++++OOOOXXXX....++++ooooXXXX....++++ooooXXXX....",
"++++ooooXXXX....++++OOOOXXXX....++++ooooXXXX....++++ooooXXXX....",
"++++ooooXXXX....++++OOOOXXXX....++++ooooXXXX....++++ooooXXXX...."
};
